<svg xmlns="http://www.w3.org/2000/svg" width="640" height="448" viewBox="0 0 640 448">
  <path id="cloud-download-light" d="M571.7,238.8A112.056,112.056,0,0,0,464,96a110.781,110.781,0,0,0-48,10.8A175.819,175.819,0,0,0,272,32c-94.4,0-171.7,74.5-175.8,168.2A143.979,143.979,0,0,0,144,480H512a127.984,127.984,0,0,0,59.7-241.2ZM512,448H144a112,112,0,0,1-15-223,137.313,137.313,0,0,1-1-17,144.042,144.042,0,0,1,277.4-54.4A79.987,79.987,0,0,1,527.1,257.2,96,96,0,0,1,512,448ZM405.2,254.5a12.011,12.011,0,0,0-17,0L320,322.7V172a12.035,12.035,0,0,0-12-12h-8a12.035,12.035,0,0,0-12,12V322.7l-68.2-68.2a12.011,12.011,0,0,0-17,0l-5.7,5.7a12.011,12.011,0,0,0,0,17l98.3,98.3a12.011,12.011,0,0,0,17,0l98.3-98.3a12.011,12.011,0,0,0,0-17l-5.5-5.7Z" transform="translate(0 -32)" fill="#fff"/>
</svg>
